<?xml version="1.0" encoding="iso-8859-1"?>
<!-- Uploaded to: SVG Repo, www.svgrepo.com, Generator: SVG Repo Mixer Tools -->
<svg height="800px" width="800px" version="1.1" id="Layer_1" xmlns="http://www.w3.org/2000/svg" xmlns:xlink="http://www.w3.org/1999/xlink" 
	 viewBox="0 0 512 512" xml:space="preserve">
<g>
	<path style="fill:#AA5446;" d="M182.133,343.085c-3.321-17.941-5.698-37.303-6.873-57.766c-0.549-9.547-0.841-19.328-0.841-29.319
		s0.293-19.772,0.841-29.319c-12.543,9.904-24.041,19.705-34.556,29.319c-2.879,2.633-5.692,5.252-8.421,7.853
		c0.2,14.472,0.952,28.745,2.232,42.694c2.702,29.436,7.759,57.427,14.959,82.81c12.86-4.03,26.189-9.001,39.811-14.818
		C186.58,364.645,184.178,354.135,182.133,343.085z"/>
	<path style="fill:#AA5446;" d="M329.87,343.085c-2.045,11.05-4.448,21.562-7.151,31.456c13.621,5.816,26.95,10.789,39.811,14.818
		c7.2-25.383,12.256-53.375,14.959-82.81c-12.889,10.775-26.527,21.37-40.784,31.667
		C334.433,339.854,332.153,341.474,329.87,343.085z"/>
	<path style="fill:#AA5446;" d="M182.133,168.915c2.045-11.05,4.448-21.562,7.151-31.456c-13.621-5.816-26.95-10.789-39.811-14.817
		c-7.2,25.383-12.256,53.375-14.959,82.81c12.889-10.775,26.527-21.37,40.784-31.667C177.57,172.146,179.85,170.526,182.133,168.915
		z"/>
	<path style="fill:#AA5446;" d="M256.001,469.802c-18.279,0-37.581-20.608-52.822-55.334c-13.534,5.698-26.814,10.625-39.702,14.714
		c0.196,0.454,0.387,0.917,0.584,1.369C187.022,483.075,219.673,512,256.001,512s68.979-28.925,91.939-81.449
		c0.197-0.452,0.388-0.914,0.584-1.369c-12.887-4.089-26.168-9.016-39.702-14.714C293.583,449.194,274.28,469.802,256.001,469.802z"
		/>
	<path style="fill:#AA5446;" d="M329.87,168.915c3.321,17.941,5.698,37.303,6.873,57.766c0.549,9.547,0.841,19.327,0.841,29.319
		c0,9.992-0.293,19.772-0.841,29.319c12.543-9.904,24.042-19.705,34.556-29.319c2.879-2.633,5.692-5.252,8.421-7.853
		c-0.2-14.472-0.952-28.744-2.232-42.694c-2.702-29.436-7.759-57.427-14.959-82.81c-12.861,4.03-26.189,9.001-39.811,14.818
		C325.422,147.355,327.825,157.865,329.87,168.915z"/>
	<path style="fill:#AA5446;" d="M256.001,42.198c18.279,0,37.581,20.608,52.822,55.334c13.534-5.698,26.814-10.625,39.703-14.714
		c-0.196-0.454-0.387-0.917-0.584-1.369C324.981,28.925,292.329,0,256.001,0s-68.979,28.925-91.939,81.449
		c-0.197,0.452-0.388,0.914-0.584,1.369c12.887,4.089,26.168,9.016,39.702,14.714C218.42,62.806,237.723,42.198,256.001,42.198z"/>
</g>
<g>
	<path style="fill:#364A57;" d="M110.748,285.675c7.598,7.01,15.52,13.979,23.767,20.872c-1.28-13.949-2.033-28.222-2.232-42.694
		C124.493,271.278,117.323,278.565,110.748,285.675z"/>
	<path style="fill:#364A57;" d="M200.002,304.003c-8.656-6.251-16.893-12.486-24.743-18.685c1.176,20.465,3.552,39.825,6.873,57.766
		c10.182,7.185,20.474,14.077,30.818,20.642c14.211-6.909,28.623-14.651,43.05-23.126
		C237.223,329.57,218.42,317.302,200.002,304.003z"/>
	<path style="fill:#364A57;" d="M498.504,375.409c-2.352-34.601-27.544-72.146-48.263-97.549
		c-5.923-7.262-12.323-14.561-19.114-21.861c-9.227,9.919-19.21,19.837-29.873,29.675c35.808,38.724,53.754,72.085,55.15,92.595
		c0.606,8.908-2.13,12.609-4.238,14.619c-8.916,8.492-37.626,12.7-89.213-3.394c-0.141-0.044-0.283-0.091-0.423-0.135
		c-12.86-4.03-26.189-9.001-39.811-14.818c-7.804-3.332-15.703-6.942-23.667-10.814c-14.308,9.081-28.71,17.536-43.05,25.288
		c17.81,9.627,35.519,18.168,52.822,25.454c13.534,5.698,26.814,10.625,39.702,14.714c0.62,0.197,1.245,0.402,1.862,0.595
		c27.533,8.589,51.833,12.872,72.464,12.872c25.244,0,44.993-6.417,58.42-19.207C490.053,415.076,500.172,399.952,498.504,375.409z"
		/>
	<path style="fill:#364A57;" d="M401.255,226.325c-7.598-7.01-15.52-13.979-23.767-20.872c1.28,13.951,2.033,28.222,2.232,42.694
		C387.509,240.722,394.68,233.435,401.255,226.325z"/>
	<path style="fill:#364A57;" d="M212.951,148.273c14.211,6.909,28.623,14.651,43.05,23.126
		c18.778,11.03,37.581,23.299,55.999,36.598c8.656,6.251,16.893,12.486,24.743,18.685c-1.176-20.465-3.552-39.825-6.873-57.766
		c-10.182-7.185-20.474-14.077-30.818-20.642c-14.309-9.084-28.711-17.537-43.052-25.289c-17.81-9.627-35.519-18.168-52.822-25.454
		c-13.534-5.698-26.814-10.625-39.702-14.714c-0.62-0.197-1.245-0.402-1.862-0.595C100.393,63.124,55.133,65.314,30.731,88.558
		c-8.783,8.366-18.902,23.49-17.234,48.034c2.352,34.601,27.544,72.146,48.263,97.549c5.923,7.262,12.323,14.561,19.114,21.861
		c9.227-9.919,19.21-19.837,29.873-29.675c-35.808-38.724-53.754-72.085-55.15-92.595c-0.606-8.908,2.13-12.609,4.238-14.619
		c4.532-4.315,14.173-7.525,29.336-7.525c14.671,0,34.509,3.004,59.876,10.919c0.141,0.044,0.283,0.091,0.423,0.135
		c12.86,4.03,26.189,9.001,39.811,14.817C197.088,140.792,204.987,144.401,212.951,148.273z"/>
</g>
<path style="fill:#0C92B6;" d="M481.27,88.558c-24.4-23.244-69.657-25.434-130.884-6.335c-0.617,0.193-1.242,0.398-1.862,0.595
	c-12.887,4.089-26.168,9.016-39.702,14.714c-17.301,7.286-35.01,15.827-52.82,25.454c14.34,7.752,28.742,16.205,43.05,25.288
	c7.964-3.872,15.864-7.48,23.667-10.814c13.621-5.816,26.95-10.789,39.811-14.818c0.141-0.044,0.283-0.091,0.423-0.135
	c25.371-7.915,45.207-10.919,59.877-10.919c15.159,0,24.805,3.208,29.335,7.524c2.108,2.01,4.843,5.711,4.238,14.619
	c-1.394,20.51-19.342,53.871-55.15,92.595c-6.574,7.11-13.745,14.396-21.534,21.822c-2.729,2.601-5.542,5.221-8.421,7.853
	c-10.514,9.613-22.013,19.414-34.556,29.319c-7.85,6.199-16.087,12.434-24.743,18.685c-18.417,13.299-37.22,25.568-55.999,36.598
	c-14.427,8.475-28.839,16.217-43.05,23.126c-7.964,3.872-15.864,7.48-23.667,10.814c-13.621,5.816-26.95,10.789-39.811,14.818
	c-0.141,0.044-0.283,0.091-0.423,0.135c-51.585,16.091-80.298,11.886-89.213,3.396c-2.108-2.01-4.843-5.711-4.238-14.619
	c1.394-20.51,19.342-53.871,55.15-92.595c6.574-7.11,13.745-14.396,21.534-21.822c2.729-2.601,5.542-5.221,8.421-7.853
	c10.514-9.613,22.013-19.414,34.556-29.319c7.85-6.199,16.087-12.434,24.743-18.685c18.417-13.299,37.22-25.568,55.999-36.598
	c-14.427-8.475-28.839-16.217-43.05-23.126c-10.344,6.566-20.636,13.458-30.818,20.642c-2.283,1.611-4.562,3.231-6.833,4.871
	c-14.259,10.296-27.897,20.891-40.784,31.667c-8.245,6.894-16.169,13.863-23.767,20.872c-10.663,9.838-20.646,19.756-29.873,29.675
	c-6.79,7.3-13.19,14.598-19.114,21.861c-20.718,25.403-45.911,62.946-48.263,97.549c-1.668,24.544,8.451,39.667,17.234,48.034
	c13.429,12.793,33.172,19.207,58.42,19.207c20.628,0,44.934-4.284,72.463-12.872c0.618-0.193,1.242-0.398,1.862-0.595
	c12.887-4.089,26.168-9.016,39.703-14.714c17.302-7.285,35.012-15.826,52.822-25.454c14.34-7.752,28.742-16.205,43.05-25.288
	c10.344-6.566,20.636-13.458,30.818-20.642c2.283-1.611,4.562-3.231,6.833-4.871c14.259-10.296,27.897-20.891,40.784-31.667
	c8.245-6.894,16.169-13.863,23.767-20.872c10.663-9.838,20.646-19.756,29.873-29.675c6.79-7.3,13.19-14.598,19.114-21.861
	c20.718-25.403,45.911-62.946,48.263-97.549C500.172,112.048,490.053,96.924,481.27,88.558z"/>
<circle style="fill:#364A57;" cx="264.441" cy="247.56" r="43.056"/>
<g>
	<path style="fill:#DD6B5B;" d="M182.133,343.085c-3.321-17.941-5.698-37.303-6.873-57.766c-0.549-9.547-0.841-19.328-0.841-29.319
		s0.293-19.772,0.841-29.319c-12.543,9.904-24.041,19.705-34.556,29.319c-2.879,2.633-5.692,5.252-8.421,7.853
		c0.2,14.472,0.952,28.745,2.232,42.694c2.702,29.436,7.759,57.427,14.959,82.81c12.86-4.03,26.189-9.001,39.811-14.818
		C186.58,364.645,184.178,354.135,182.133,343.085z"/>
	<path style="fill:#DD6B5B;" d="M182.133,168.915c2.045-11.05,4.448-21.562,7.151-31.456c-13.621-5.816-26.95-10.789-39.811-14.817
		c-7.2,25.383-12.256,53.375-14.959,82.81c12.889-10.775,26.527-21.37,40.784-31.667C177.57,172.146,179.85,170.526,182.133,168.915
		z"/>
	<path style="fill:#DD6B5B;" d="M263.034,468.806c-2.355,0.657-4.702,0.996-7.033,0.996c-18.279,0-37.581-20.608-52.822-55.334
		c-13.534,5.698-26.814,10.625-39.702,14.714c0.196,0.454,0.387,0.917,0.584,1.369C187.022,483.075,219.673,512,256.001,512
		c2.36,0,4.705-0.128,7.033-0.371V468.806z"/>
	<path style="fill:#DD6B5B;" d="M263.034,0.371C260.706,0.128,258.362,0,256.001,0c-36.328,0-68.979,28.925-91.939,81.449
		c-0.197,0.452-0.388,0.914-0.584,1.369c12.887,4.089,26.168,9.016,39.702,14.714c15.239-34.726,34.542-55.334,52.82-55.334
		c2.331,0,4.678,0.339,7.033,0.996V0.371z"/>
</g>
<g>
	<path style="fill:#476172;" d="M110.748,285.675c7.598,7.01,15.52,13.979,23.767,20.872c-1.28-13.949-2.033-28.222-2.232-42.694
		C124.493,271.278,117.323,278.565,110.748,285.675z"/>
	<path style="fill:#476172;" d="M200.002,304.003c-8.656-6.251-16.893-12.486-24.743-18.685c1.176,20.465,3.552,39.825,6.873,57.766
		c10.182,7.185,20.474,14.077,30.818,20.642c14.211-6.909,28.623-14.651,43.05-23.126
		C237.223,329.57,218.42,317.302,200.002,304.003z"/>
</g>
<path style="fill:#364A57;" d="M263.034,385.131c-2.345,1.304-4.691,2.618-7.033,3.884c2.346,1.269,4.691,2.515,7.033,3.746V385.131
	z"/>
<path style="fill:#476172;" d="M263.034,126.869c-2.345-1.304-4.691-2.618-7.033-3.884c-17.81-9.627-35.519-18.168-52.822-25.454
	c-13.534-5.698-26.814-10.625-39.702-14.714c-0.62-0.197-1.245-0.402-1.862-0.595C100.393,63.124,55.133,65.314,30.731,88.558
	c-8.783,8.366-18.902,23.49-17.234,48.034c2.352,34.601,27.544,72.146,48.263,97.549c5.923,7.262,12.323,14.561,19.114,21.861
	c9.227-9.919,19.21-19.837,29.873-29.675c-35.808-38.724-53.754-72.085-55.15-92.595c-0.606-8.908,2.13-12.609,4.238-14.619
	c4.532-4.315,14.173-7.525,29.336-7.525c14.671,0,34.509,3.004,59.876,10.919c0.141,0.044,0.283,0.091,0.423,0.135
	c12.86,4.03,26.189,9.001,39.811,14.817c7.804,3.332,15.703,6.942,23.667,10.814c14.211,6.909,28.623,14.651,43.05,23.126
	c2.345,1.377,4.688,2.774,7.033,4.189v-48.719H263.034z"/>
<path style="fill:#0C92B6;" d="M263.034,119.24c-2.342,1.231-4.687,2.477-7.033,3.746c2.342,1.266,4.688,2.581,7.033,3.884V119.24z"
	/>
<path style="fill:#01AEDB;" d="M263.034,336.412c-2.345,1.415-4.688,2.812-7.033,4.189c-14.427,8.475-28.839,16.217-43.05,23.126
	c-7.964,3.872-15.864,7.48-23.667,10.814c-13.621,5.816-26.95,10.789-39.811,14.818c-0.141,0.044-0.283,0.091-0.423,0.135
	c-51.585,16.091-80.298,11.886-89.213,3.396c-2.108-2.01-4.843-5.711-4.238-14.619c1.394-20.51,19.342-53.871,55.15-92.595
	c6.574-7.11,13.745-14.396,21.534-21.822c2.729-2.601,5.542-5.221,8.421-7.853c10.514-9.613,22.013-19.414,34.556-29.319
	c7.85-6.199,16.087-12.434,24.743-18.685c18.417-13.299,37.22-25.568,55.999-36.598c-14.427-8.475-28.839-16.217-43.05-23.126
	c-10.344,6.566-20.636,13.458-30.818,20.642c-2.283,1.611-4.562,3.231-6.833,4.871c-14.259,10.296-27.897,20.891-40.784,31.667
	c-8.245,6.894-16.169,13.863-23.767,20.872c-10.663,9.838-20.646,19.756-29.873,29.675c-6.79,7.3-13.19,14.598-19.114,21.861
	c-20.718,25.403-45.911,62.946-48.263,97.549c-1.668,24.544,8.451,39.667,17.234,48.034c13.429,12.793,33.172,19.207,58.42,19.207
	c20.628,0,44.934-4.284,72.463-12.872c0.618-0.193,1.242-0.398,1.862-0.595c12.887-4.089,26.168-9.016,39.703-14.714
	c17.302-7.285,35.012-15.826,52.822-25.454c2.342-1.266,4.688-2.581,7.033-3.884L263.034,336.412L263.034,336.412z"/>
<path style="fill:#476172;" d="M263.034,204.54c-23.127,0.744-41.649,19.713-41.649,43.021s18.523,42.277,41.649,43.021V204.54z"/>
</svg>